<?xml version="1.0"?>
<svg xmlns="http://www.w3.org/2000/svg" height="512px" viewBox="0 -16 512 512" width="512px"><path d="m462 200c5.519531 0 10-4.480469 10-10s-4.480469-10-10-10-10 4.480469-10 10 4.480469 10 10 10zm0 0" fill="#FF1E5C"/><path d="m502 0h-492c-5.523438 0-10 4.476562-10 10v280c0 5.523438 4.476562 10 10 10h70v20h-70c-5.523438 0-10 4.476562-10 10s4.476562 10 10 10h206v130c0 5.523438 4.476562 10 10 10h60c5.523438 0 10-4.476562 10-10v-130h206c5.523438 0 10-4.476562 10-10s-4.476562-10-10-10h-70v-20h70c5.523438 0 10-4.476562 10-10v-280c0-5.523438-4.476562-10-10-10zm-10 20v220h-472v-220zm-472 240h40v20h-40zm80 60v-20h116v20zm176-20v20h-40v-20zm0 160h-40v-120h40zm136-140h-116v-20h116zm-332-40v-20h412v20zm0 0" fill="#FF1E5C"/><path d="m190.742188 198.507812c2.949218 1.820313 6.628906 1.984376 9.730468.4375l120-60c3.386719-1.695312 5.527344-5.15625 5.527344-8.945312s-2.140625-7.25-5.527344-8.945312l-120-60c-3.101562-1.546876-6.78125-1.382813-9.730468.4375-2.949219 1.824218-4.742188 5.042968-4.742188 8.507812v120c0 3.464844 1.792969 6.683594 4.742188 8.507812zm15.257812-112.328124 87.640625 43.820312-87.640625 43.820312zm0 0" fill="#FF1E5C"/><path d="m462 160c5.523438 0 10-4.476562 10-10v-80c0-5.523438-4.476562-10-10-10s-10 4.476562-10 10v80c0 5.523438 4.476562 10 10 10zm0 0" fill="#FF1E5C"/></svg>
